<?xml version="1.0" encoding="utf-8"?>
<!-- Generator: Adobe Illustrator 18.1.1, SVG Export Plug-In . SVG Version: 6.00 Build 0)  -->
<!DOCTYPE svg PUBLIC "-//W3C//DTD SVG 1.1//EN" "http://www.w3.org/Graphics/SVG/1.1/DTD/svg11.dtd">
<svg version="1.1" id="Layer_1" xmlns="http://www.w3.org/2000/svg" xmlns:xlink="http://www.w3.org/1999/xlink" x="0px" y="0px"
	 viewBox="0 0 872 440" enable-background="new 0 0 872 440" xml:space="preserve">
<g>
	<defs>
		<rect id="SVGID_1_" y="0.1" width="871.7" height="439.8"/>
	</defs>
	<clipPath id="SVGID_2_">
		<use xlink:href="#SVGID_1_"  overflow="visible"/>
	</clipPath>
	<path clip-path="url(#SVGID_2_)" fill-rule="evenodd" clip-rule="evenodd" fill="#040304" d="M435.8,24.2
		c-23.7,0.4-47.3,0.9-70.8,2.9c-23.5,2-46.9,5.5-70.2,9c-13.9,2.6-27.8,5.2-41.5,8.5c-13.7,3.2-27.3,7.2-40.9,11.1
		c-11.3,3.6-22.5,7.3-33.6,11.5c-11.1,4.2-21.9,9.1-32.8,13.9c-8.4,4.1-16.9,8.3-25,12.9c-8.2,4.6-16.1,9.7-24,14.9
		c-5.8,4.2-11.7,8.3-17.3,12.9c-5.6,4.6-10.8,9.5-16.1,14.4c-5.5,5.8-10.9,11.6-15.7,17.9c-4.7,6.3-8.7,13.2-12.7,20.1
		c-2.5,4.7-4.6,9.6-6.3,14.7c-4.5,13.9-6.4,28.3-4.6,42.6c0.8,5.6,1.9,11.1,3.5,16.6c1.7,5.4,3.7,10.7,6.1,15.8
		c2.4,5.1,5.2,10,8.4,14.7c3.2,4.6,6.5,9.1,10,13.4c3.6,4.3,7.4,8.3,11.3,12.3c5.3,4.9,10.5,9.9,16.1,14.4
		c5.6,4.6,11.5,8.7,17.3,12.9c7.9,5.1,15.8,10.2,24,14.9c8.1,4.6,16.6,8.8,25,12.9c10.9,4.8,21.7,9.6,32.8,13.9
		c11.1,4.2,22.3,7.9,33.6,11.5c13.6,3.9,27.2,7.8,40.9,11.1c13.7,3.3,27.6,5.9,41.5,8.5c44.7,5.7,89.5,11.5,134.3,11.8
		c44.8,0.4,89.7-4.6,134.6-9.7c18.7-3.3,37.4-6.5,55.9-11c18.4-4.4,36.6-10,54.7-15.6c9.8-3.5,19.5-6.9,29.1-10.8
		c9.6-3.9,18.9-8.3,28.3-12.7c7.4-3.8,14.8-7.5,22-11.7c7.2-4.2,14.2-8.7,21.1-13.3c7.6-5.4,15.2-10.9,22.2-17
		c7-6.1,13.4-12.8,19.8-19.6c4.3-5.2,8.5-10.4,12.2-16c3.7-5.6,6.7-11.6,9.8-17.6c1.8-3.9,3.4-8,4.7-12.1c4-12.6,5.2-25.7,3.9-38.7
		c-0.5-4.3-1.2-8.6-2.2-12.8c-1.9-6.3-3.8-12.6-6.4-18.6c-2.7-5.9-6.1-11.6-9.6-17.2c-3.2-4.6-6.4-9.1-10-13.4
		c-3.5-4.3-7.4-8.3-11.3-12.3c-5.2-4.9-10.5-9.9-16.1-14.4c-5.5-4.5-11.4-8.7-17.3-12.9c-7.9-5.1-15.8-10.2-23.9-14.9
		c-8.2-4.6-16.6-8.8-25.1-12.9c-10.8-4.8-21.7-9.6-32.7-13.9c-11.1-4.2-22.4-7.9-33.7-11.5c-13.5-3.9-27.1-7.8-40.8-11.1
		c-13.8-3.3-27.6-5.9-41.5-8.5c-23.4-3.5-46.8-7-70.3-9C483,25.1,459.4,24.6,435.8,24.2 M435.8,4.1c15.1,0.2,30.3,0.7,45.4,1.2
		c12.1,0.7,24.2,1.4,36.2,2.6c21.1,2.1,42.1,5.2,63.1,8.4c21.3,3.9,42.5,8.3,63.8,14.2c7,1.9,14,3.9,21,6
		c11.7,3.8,23.4,7.7,34.9,12.1s22.8,9.4,34.1,14.4c9.8,4.9,19.5,9.7,28.9,15.1c9.4,5.5,18.5,11.5,27.6,17.6
		c7.9,6,15.9,11.9,23.2,18.6c7.4,6.7,14,14,20.7,21.4c4,5,7.7,10,11.2,15c2.8,4.1,5.4,8.5,7.7,12.9c2.3,4.5,4.4,9,6.1,13.7
		c6,15.9,8.9,32.2,8,48.6c-0.3,6.5-1.2,13-2.6,19.3c-1.4,6.4-3.3,12.6-5.7,18.6c-2.4,6-5.3,11.9-8.7,17.4c-3.2,5.3-6.4,10.5-10,15.5
		c-3.6,4.9-7.7,9.6-11.7,14.2c-3.4,3.9-7.1,7.7-11.2,11.4c-6,5.4-11.9,10.8-18.3,15.8c-6.3,4.9-13,9.4-19.8,13.9
		c-8.6,5.4-17.3,10.9-26.3,15.7s-18.3,9.1-27.6,13.3c-7.7,3.4-15.5,6.8-23.4,9.9c-13.5,5.2-27.3,9.8-40.9,14
		c-12.8,3.7-25.5,7.2-38.3,10.3c-14.2,3.3-28.5,6.1-42.8,8.7c-28.6,3.8-57.3,7-86.1,9.7c-14.3,1-28.7,2-43,2.3
		c-14.4,0.3-28.8-0.1-43.1-0.5c-25.9-1.2-51.8-3.6-77.7-6.4c-8.6-0.9-17.2-1.9-25.8-2.9c-19.3-3.1-38.5-6.9-57.7-11.3
		c-18.9-4.9-37.7-10.3-56.5-16.2c-7.6-2.7-15.2-5.3-22.8-8.3c-7.5-3-14.9-6.2-22.3-9.4c-7.4-3.4-14.8-6.9-22.1-10.6
		c-7.3-3.8-14.4-7.8-21.4-11.9c-7.1-4.4-14.1-8.9-21-13.8c-8.3-6.2-16.6-12.5-24.2-19.5c-7.6-7-14.5-14.7-21.5-22.5
		c-5.1-6.8-9.8-13.6-14.1-20.6c-3-5.1-5.7-10.3-7.9-15.8c-2.3-5.4-4.2-11-5.7-16.7c-3-11.3-4.3-23.1-3.7-34.8
		c0.3-6.6,1.2-13.1,2.6-19.5c1.3-6.4,3.3-12.7,5.7-18.8c2.4-6.1,5.3-12,8.7-17.6c3.2-5.3,6.4-10.6,10-15.5c3.6-5,7.7-9.6,11.8-14.2
		c3.3-3.9,7-7.7,11.1-11.4c6-5.4,12-10.8,18.3-15.8c6.4-4.9,13.1-9.4,19.8-13.9c8.7-5.4,17.4-10.8,26.3-15.7
		c9-4.8,18.3-9.1,27.6-13.3c7.8-3.4,15.5-6.8,23.4-9.9c13.6-5.2,27.3-9.8,41-14c12.7-3.7,25.5-7.2,38.2-10.3c13.7-3.1,27.3-6,41-8.4
		c6.6-1.1,13.2-2.1,19.8-3c16.5-2.3,33-4.7,49.5-6.1c16.6-1.5,33.3-2.1,49.9-2.8C417.6,4.5,426.7,4.3,435.8,4.1L435.8,4.1z"/>
	<path clip-path="url(#SVGID_2_)" fill-rule="evenodd" clip-rule="evenodd" fill="#040304" d="M574.9,136.7c0,0.3,0.1,0.5,0.5,1.3
		c0.5,0.8,1.4,2,2.3,3c1.7,1.8,3.1,2.5,4.6,3.4c3.4,1.9,6.9,2.6,10.5,2.6l63.6,0c4.8-0.1,9.7-1.1,14.7-5.7c0.6-0.6,1.1-1.2,1.7-1.9
		c0.5-0.7,0.9-1.3,1.2-1.8c0.3-0.5,0.4-0.7,0.3-1c0-3.2-1.1-6.5-5.2-9.8c-4-3-8.3-4-12.7-4l-63.6,0c-4.1,0.1-8.3,0.8-12.7,4.1
		c-3.1,2.4-4.4,5-5,7.6C575,135.2,574.7,136,574.9,136.7 M440.8,228.5c0.4,1.7,1.2,3.4,3.5,5.1c2.8,2,5.8,2.7,8.8,2.7
		c3.3-0.1,6.6-0.5,10.1-3.8c1.8-1.8,2.4-3.6,2.4-5.5V107.4c0-2.1-0.7-4.3-3.6-6.6c-2.8-2-5.8-2.7-8.9-2.7c-3.2,0.1-6.5,0.5-10.1,3.8
		c-1.7,1.8-2.3,3.6-2.4,5.5v119.6C440.6,227.6,440.7,228.1,440.8,228.5L440.8,228.5z M380.5,235c-0.8,0.3-2.3,0.7-3.5,0.8
		c-0.7,0.1-1.3,0.1-2,0.1c-3.2-0.1-6.5-0.5-10.1-3.8c-1.7-1.8-2.4-3.6-2.4-5.5l-0.1-125.4c0-3.5-0.8-7.1-3.8-10.9
		c-3-3.9-7.9-8-18.9-9.6c-11-1.6-28.1-0.7-46.2-0.8c-18.2-0.1-37.2-1.3-49.3,0.6c-12,1.9-17,7-19.7,10.8c-2.7,3.8-3,6.5-3.2,8
		c-0.1,1.6,0.1,2,0.1,2.5l0.1,116.8c0,5.2,0.1,10.5-1.7,13.5c-1.8,3-5.3,3.7-8.9,4.4l-38.9,0.2l-29.7,55.5h465.2v-88.4
		c0.7-4.7,3.2-9.2,7.2-11.9c4-2.7,9.4-3.7,21.4-4c11.9-0.3,30.4,0,41.3-0.2c10.9-0.3,14.2-1.2,17.2-2.8c3.9,0.7,7.7,1.4,10.1,3.5
		c2.5,2.1,3.5,5.6,4.5,9.1c-3.3,1.2-6.1,3.5-8.3,6.7c-2.1,3.2-3.5,7.3-1.8,10.7c1.7,3.4,6.6,6.3,11.7,7.2c5.2,1,10.6,0.1,14-3.4
		c3.3-3.5,4.6-9.6,3.9-15c-0.8-5.4-3.6-10.1-8.3-15c-4.8-4.8-11.3-9.8-18.4-13.5c1.1-0.2,2-1.2,2.3-8.2c0.3-7,0.1-20.1,0.3-36.6
		c0.2-16.5,0.8-36.5-12.6-45.6c-13.4-9-40.9-7-62.7-6.5c-21.9,0.5-38.3-0.4-50,0c-11.8,0.4-18.9,2.2-23.7,5.6
		c-4.7,3.5-7,8.6-8.2,11.6c-1.1,3-0.6,3.8-0.6,4.6l-0.4,126c0,2.1-0.8,4.3-3.7,6.6c-2.7,2-5.8,2.7-8.8,2.7
		c-3.3-0.1-6.5-0.5-10.1-3.8c-1.7-1.8-2.4-3.6-2.4-5.5l-0.1-123.6c0-3.4-0.1-6.9-2.3-11.3c-2.3-4.5-6.2-9.9-18.8-11.9
		c-12.7-2.1-34.1-0.8-52.2-0.6c-18.1,0.2-33-0.8-42.9,1.3c-9.9,2.1-14.9,7.4-17.4,11.8c-2.6,4.3-1.4,7.3-1.4,10.4l-0.1,125.4
		c-0.1,2.1-0.7,4.3-3.7,6.6c-0.4,0.3-0.9,0.6-1.2,0.8C380.9,234.8,380.8,234.9,380.5,235L380.5,235z M279.3,228.6
		c0.4,1.7,1.3,3.4,3.5,5.1c2.8,2,5.8,2.7,8.9,2.7c3.2-0.1,6.5-0.5,10.1-3.8c1.7-1.8,2.4-3.6,2.4-5.5v-120c-0.1-2.1-0.8-4.3-3.7-6.6
		c-2.8-2-5.8-2.7-8.8-2.7c-3.3,0.1-6.6,0.5-10.1,3.8c-1.7,1.8-2.4,3.6-2.4,5.5v120C279.2,227.7,279.2,228.2,279.3,228.6z"/>
	<path clip-path="url(#SVGID_2_)" fill-rule="evenodd" clip-rule="evenodd" fill="#040304" d="M156.9,314.6c-1,1.2-1.8,2.5-2.3,4
		c-0.5,1.5-0.7,3.3-0.7,5.2c0,3.8,1,6.9,3,9.2c0.9,1.2,2.1,2,3.4,2.6c1.4,0.6,2.8,0.9,4.5,0.9c2.2,0,4.1-0.5,5.7-1.6
		c1.7-1,3-2.5,3.9-4.5c0.9-2.1,1.3-4.3,1.3-6.7c0-1.9-0.2-3.7-0.8-5.2c-0.5-1.6-1.2-2.9-2.1-4c-2-2.4-5.3-3.5-8-3.4
		C161.5,311.1,158.9,312.3,156.9,314.6 M172.4,306c1.2,0.4,2.2,1,3.2,1.6c1,0.6,1.9,1.4,2.8,2.2c1.1,1.1,2.1,2.4,2.9,3.9
		c2.6,4.5,3.3,10.2,2,15.4c-0.9,3.3-2.1,5.9-4.9,8.8c-1.7,1.7-3.7,3-6,3.8c-2.2,0.8-4.8,1.3-7.6,1.3s-5.3-0.4-7.6-1.2
		c-1.1-0.4-2.1-0.9-3.1-1.6c-1-0.6-2-1.4-2.8-2.2c-1.2-1.2-2.2-2.5-3-4c-1.7-3-2.6-6.7-2.6-10.1c0-2.7,0.5-5.3,1.5-7.8
		c0.4-1.2,1-2.4,1.7-3.4c0.7-1.1,1.5-2,2.4-2.9c1.7-1.7,3.7-2.9,5.9-3.8c2.3-0.8,4.8-1.3,7.6-1.3C167.7,304.7,170.2,305.1,172.4,306
		z"/>
	<polyline clip-path="url(#SVGID_2_)" fill-rule="evenodd" clip-rule="evenodd" fill="#040304" points="206.8,311.6 206.8,341.8 
		198.6,341.8 198.6,311.6 186.6,311.6 186.6,305.3 218.4,305.3 218.4,311.6 206.8,311.6 	"/>
	<polyline clip-path="url(#SVGID_2_)" fill-rule="evenodd" clip-rule="evenodd" fill="#040304" points="240,311.6 240,341.8 
		231.9,341.8 231.9,311.6 219.9,311.6 219.9,305.3 251.6,305.3 251.6,311.6 240,311.6 	"/>
	<polyline clip-path="url(#SVGID_2_)" fill-rule="evenodd" clip-rule="evenodd" fill="#040304" points="264.8,326.1 264.8,335.5 
		286.3,335.5 286.3,341.8 256.6,341.8 256.6,305.3 285.3,305.3 285.3,311.6 264.8,311.6 264.8,319.8 283.8,319.8 283.8,326.1 
		264.8,326.1 	"/>
	<path clip-path="url(#SVGID_2_)" fill-rule="evenodd" clip-rule="evenodd" fill="#040304" d="M317,314.6c-1,1.2-1.7,2.5-2.2,4
		c-0.5,1.5-0.8,3.3-0.8,5.2c0,3.8,1,6.9,3,9.2c1,1.2,2.2,2,3.5,2.6c1.3,0.6,2.8,0.9,4.5,0.9c2.1,0,4-0.5,5.7-1.6
		c1.7-1,2.9-2.5,3.8-4.5c1-2.1,1.4-4.3,1.4-6.7c0-1.9-0.3-3.7-0.8-5.2c-0.5-1.6-1.2-2.9-2.2-4c-2-2.4-5.2-3.5-7.9-3.4
		C321.7,311.1,319,312.3,317,314.6 M332.6,306c1.1,0.4,2.2,1,3.2,1.6c0.9,0.6,1.9,1.4,2.7,2.2c1.2,1.1,2.1,2.4,3,3.9
		c2.5,4.5,3.3,10.2,1.9,15.4c-0.9,3.3-2.1,5.9-4.9,8.8c-1.7,1.7-3.6,3-5.9,3.8c-2.3,0.8-4.8,1.3-7.6,1.3s-5.4-0.4-7.6-1.2
		c-1.1-0.4-2.2-0.9-3.2-1.6c-1-0.6-1.9-1.4-2.8-2.2c-1.2-1.2-2.2-2.5-3-4c-1.7-3-2.5-6.7-2.5-10.1c0-2.7,0.5-5.3,1.4-7.8
		c0.5-1.2,1.1-2.4,1.8-3.4c0.6-1.1,1.4-2,2.3-2.9c1.7-1.7,3.7-2.9,6-3.8c2.2-0.8,4.8-1.3,7.6-1.3S330.3,305.1,332.6,306z"/>
	
		<rect x="349.4" y="305.3" clip-path="url(#SVGID_2_)" fill-rule="evenodd" clip-rule="evenodd" fill="#040304" width="8.2" height="36.5"/>
	<polyline clip-path="url(#SVGID_2_)" fill-rule="evenodd" clip-rule="evenodd" fill="#040304" points="373.6,305.3 373.6,335.5 
		392.6,335.5 392.6,341.8 365.5,341.8 365.5,305.3 373.6,305.3 	"/>
	<path clip-path="url(#SVGID_2_)" fill-rule="evenodd" clip-rule="evenodd" fill="#040304" d="M428.2,316.3c0.6-0.8,0.8-1.5,0.8-2.4
		c0-1.6-1-2.4-1.8-2.6c-0.4-0.1-0.8-0.2-1.3-0.2c-1,0-1.7,0.2-2.3,0.6c-1,0.8-1,1.7-0.7,2.9c0.1,0.3,0.4,0.7,0.8,1.2
		c0.1,0.2,0.4,0.6,0.7,1c0.4,0.4,0.8,0.9,1.3,1.5C426.9,317.6,427.7,317,428.2,316.3 M423.6,325.8l-2.6,1.4c-0.7,0.5-1.3,1-1.7,1.7
		c-0.8,1.3-0.9,3.4,0.2,5.1c1.1,1.8,3.3,3.1,5,3c1.7,0,4.3-1.1,6.5-2.8L423.6,325.8z M437.1,323.1h6.1c0,4.2-0.7,7.3-3.7,10.9
		l6.7,7.7h-8.7L435,339c-2.6,1.7-3.8,2.4-5.6,3.1c-2,0.8-3.4,0.8-5,0.8c-2,0-3.7-0.2-5.2-0.7c-1.6-0.5-3-1.2-4.1-2.2
		c-2.6-2.1-3.7-5.2-3.6-7.9c0-1.6,0.2-3,0.8-4.1c0.5-1.2,1.4-2.2,2.6-3.2c0.6-0.5,1.4-1,2.2-1.5c0.9-0.5,1.8-1,2.9-1.5
		c-0.6-0.7-1.4-1.6-2.2-2.5c-1.6-1.7-2.3-3.5-2.3-5.3c0-1.5,0.5-2.9,1.4-4.2c1.3-2,3.8-3.4,6.1-3.9c0.9-0.2,1.8-0.3,2.8-0.3
		c2.9,0,5.3,0.7,7,2.1c0.9,0.7,1.6,1.5,2,2.5c0.5,0.9,0.7,2,0.7,3.2c0,2.9-1,4.8-3.3,6.6c-0.8,0.7-1.9,1.4-3.1,2.2l6.4,7.2
		C437.1,326.7,437.1,325.3,437.1,323.1z"/>
	<path clip-path="url(#SVGID_2_)" fill-rule="evenodd" clip-rule="evenodd" fill="#040304" d="M475.2,322.5h7.6
		c2.1,0,3.7-0.5,4.8-1.4c0.5-0.5,0.9-1,1.1-1.7c0.3-0.7,0.4-1.5,0.4-2.4c0-1.8-0.5-3.2-1.5-4.1c-0.5-0.4-1.2-0.8-2-1
		c-0.8-0.2-1.7-0.3-2.8-0.3h-7.6V322.5 M475.2,328.8v13H467v-36.5h17.5c2.1,0,3.9,0.2,5.5,0.7c1.6,0.5,2.9,1.2,4,2.2
		c1.7,1.5,2.7,3.7,3.1,5.7c0.1,0.8,0.2,1.6,0.2,2.6c0,2.5-0.5,4.7-1.5,6.5c-0.9,1.8-2.3,3.3-4.1,4.3c-0.9,0.5-1.9,0.9-3,1.1
		c-1,0.2-2.2,0.4-3.4,0.4H475.2z"/>
	<path clip-path="url(#SVGID_2_)" fill-rule="evenodd" clip-rule="evenodd" fill="#040304" d="M511.7,321.1h9.8c2.1,0,3-0.1,4.3-1
		c0.5-0.4,0.9-0.9,1.1-1.5c0.3-0.6,0.4-1.4,0.4-2.4c0-1.7-0.5-2.9-1.3-3.6c-0.5-0.3-1.1-0.6-1.8-0.8c-0.8-0.2-1.6-0.3-2.7-0.3h-9.8
		L511.7,321.1 M511.7,327.3v14.5h-8.2v-36.5h21.3c1.6,0,3.1,0.2,4.4,0.6c1.3,0.4,2.3,1,3.2,1.9c2.1,1.9,3.1,4.8,3,7.4
		c0,2.2-0.5,4-1.6,5.6c-1.2,1.5-2.8,2.7-5.1,3.5c1.7,0.6,2.9,1.3,3.7,2c1.8,2,1.4,4.4,1.7,6.8c0,0.2,0,0.5,0,0.9
		c0.1,0.8,0,2.3,0.1,3.6c0,1.8,0.8,2.5,1.8,3v1.4h-8.8c-0.5-0.9-0.8-1.7-1-2.5c0-0.4-0.1-0.8-0.1-1.4c-0.1-0.6-0.1-1.3-0.1-2.1
		c0-1.6,0.1-3.1,0.1-4.3c0-1.4-0.4-2.5-1.3-3.2c-0.4-0.3-0.9-0.6-1.6-0.8c-0.6-0.2-1.3-0.2-2.2-0.2H511.7z"/>
	<path clip-path="url(#SVGID_2_)" fill-rule="evenodd" clip-rule="evenodd" fill="#040304" d="M551.7,314.6c-1,1.2-1.7,2.5-2.2,4
		c-0.5,1.5-0.7,3.3-0.7,5.2c0,3.8,0.9,6.9,2.9,9.2c1,1.2,2.2,2,3.5,2.6c1.3,0.6,2.8,0.9,4.5,0.9c2.1,0,4.1-0.5,5.7-1.6
		c1.7-1,3-2.5,3.8-4.5c1-2.1,1.4-4.3,1.4-6.7c0-1.9-0.3-3.7-0.8-5.2c-0.5-1.6-1.2-2.9-2.2-4c-2-2.4-5.2-3.5-7.9-3.4
		C556.4,311.1,553.7,312.3,551.7,314.6 M567.3,306c1.1,0.4,2.2,1,3.2,1.6s1.9,1.4,2.7,2.2c1.2,1.1,2.2,2.4,3,3.9
		c2.5,4.5,3.3,10.2,1.9,15.4c-0.8,3.3-2,5.9-4.9,8.8c-1.6,1.7-3.6,3-5.9,3.8c-2.2,0.8-4.8,1.3-7.6,1.3c-2.8,0-5.3-0.4-7.6-1.2
		c-1.1-0.4-2.2-0.9-3.2-1.6c-0.9-0.6-1.9-1.4-2.7-2.2c-1.2-1.2-2.2-2.5-3.1-4c-1.7-3-2.5-6.7-2.5-10.1c0-2.7,0.5-5.3,1.4-7.8
		c0.5-1.2,1.1-2.4,1.8-3.4c0.7-1.1,1.5-2,2.4-2.9c1.7-1.7,3.6-2.9,5.9-3.8c2.2-0.8,4.8-1.3,7.6-1.3
		C562.5,304.7,565.1,305.1,567.3,306L567.3,306z"/>
	<path clip-path="url(#SVGID_2_)" fill-rule="evenodd" clip-rule="evenodd" fill="#040304" d="M593,322.5h7.7c2.1,0,3.7-0.5,4.7-1.4
		c0.6-0.5,1-1,1.2-1.7c0.3-0.7,0.4-1.5,0.4-2.4c0-1.8-0.5-3.2-1.6-4.1c-0.5-0.4-1.1-0.8-1.9-1c-0.8-0.2-1.8-0.3-2.8-0.3H593V322.5
		 M593,328.8v13h-8.1v-36.5h17.5c2,0,3.9,0.2,5.5,0.7c1.5,0.5,2.9,1.2,3.9,2.2c1.7,1.5,2.8,3.7,3.1,5.7c0.2,0.8,0.3,1.6,0.3,2.6
		c0,2.5-0.5,4.7-1.5,6.5c-1,1.8-2.4,3.3-4.2,4.3c-0.9,0.5-1.8,0.9-2.9,1.1c-1,0.2-2.2,0.4-3.4,0.4H593z"/>
	<path clip-path="url(#SVGID_2_)" fill-rule="evenodd" clip-rule="evenodd" fill="#040304" d="M638,328.2l-5.1-14.3l-5.2,14.3H638
		 M640.2,334.4h-14.8l-2.7,7.4h-8.3l14.1-36.5h9l13.7,36.5h-8.4L640.2,334.4z"/>
	<polyline clip-path="url(#SVGID_2_)" fill-rule="evenodd" clip-rule="evenodd" fill="#040304" points="680.1,341.8 664.1,316.6 
		664.1,341.8 655.9,341.8 655.9,305.3 664.3,305.3 680.1,330.1 680.1,305.3 688.2,305.3 688.2,341.8 680.1,341.8 	"/>
	<polyline clip-path="url(#SVGID_2_)" fill-rule="evenodd" clip-rule="evenodd" fill="#040304" points="704,326.1 704,335.5 
		725.5,335.5 725.5,341.8 695.8,341.8 695.8,305.3 724.5,305.3 724.5,311.6 704,311.6 704,319.8 723,319.8 723,326.1 704,326.1 	"/>
	<path clip-path="url(#SVGID_2_)" fill-rule="evenodd" clip-rule="evenodd" fill="#040304" d="M255.1,379.6h5.3
		c2.2,0,3.8-0.7,4.9-2.1c1.1-1.4,1.6-3.5,1.6-6.3c0-2.8-0.5-4.9-1.6-6.3c-1.1-1.4-2.7-2.1-4.9-2.1h-5.3V379.6 M249.3,384v-25.5h11.1
		c1.4,0,2.7,0.1,3.8,0.3c2.1,0.4,3.5,0.9,5.1,2.7c2.4,2.4,3.6,6.4,3.5,9.8c0,2.1-0.3,3.9-0.9,5.5c-0.5,1.6-1.4,3.1-2.6,4.3
		c-0.9,1-2.1,1.8-3.5,2.3c-0.7,0.2-1.5,0.4-2.4,0.5c-0.9,0.1-1.9,0.2-3,0.2H249.3z"/>
	<path clip-path="url(#SVGID_2_)" fill-rule="evenodd" clip-rule="evenodd" fill="#040304" d="M292.3,374.5l-3.6-10l-3.8,10H292.3
		 M293.9,378.9h-10.6l-1.9,5.1h-6l10.1-25.5h6.5l9.8,25.5h-6L293.9,378.9z"/>
	<polyline clip-path="url(#SVGID_2_)" fill-rule="evenodd" clip-rule="evenodd" fill="#040304" points="315.1,384 310.2,384 
		300.6,358.5 306.5,358.5 312.8,377.7 319,358.5 324.9,358.5 315.1,384 	"/>
	<polyline clip-path="url(#SVGID_2_)" fill-rule="evenodd" clip-rule="evenodd" fill="#040304" points="334.6,373 334.6,379.6 
		350,379.6 350,384 328.7,384 328.7,358.5 349.3,358.5 349.3,362.9 334.6,362.9 334.6,368.7 348.2,368.7 348.2,373 334.6,373 	"/>
	<polyline clip-path="url(#SVGID_2_)" fill-rule="evenodd" clip-rule="evenodd" fill="#040304" points="368,374.6 368,384 
		362.1,384 362.1,374.6 352.7,358.5 359.2,358.5 365,369.8 370.4,358.5 377,358.5 368,374.6 	"/>
	<path clip-path="url(#SVGID_2_)" fill-rule="evenodd" clip-rule="evenodd" fill="#040304" d="M375.8,378.9h5.8v4.8
		c0,1.4-0.1,2.5-0.5,3.2c-0.3,1.1-1.9,2.3-3.3,2.7c-0.6,0.2-1.3,0.3-2,0.4v-1.9c0.8-0.1,1.4-0.4,1.9-0.7c1.2-0.8,1.4-2.2,1.4-3.4
		h-3.3V378.9"/>
	<polyline clip-path="url(#SVGID_2_)" fill-rule="evenodd" clip-rule="evenodd" fill="#040304" points="414.9,384 403.4,366.4 
		403.4,384 397.6,384 397.6,358.5 403.6,358.5 414.9,375.9 414.9,358.5 420.7,358.5 420.7,384 414.9,384 	"/>
	<polyline clip-path="url(#SVGID_2_)" fill-rule="evenodd" clip-rule="evenodd" fill="#040304" points="432,373 432,379.6 
		447.4,379.6 447.4,384 426.2,384 426.2,358.5 446.7,358.5 446.7,362.9 432,362.9 432,368.7 445.6,368.7 445.6,373 432,373 	"/>
	<path clip-path="url(#SVGID_2_)" fill-rule="evenodd" clip-rule="evenodd" fill="#040304" d="M480.5,359.2v3.8
		c-4.6,4.9-7.7,9.9-8.9,14.9c-0.3,0.8-0.4,1.8-0.6,2.8s-0.3,2.1-0.4,3.3h-5.5c0.3-2,0.6-3.7,0.9-5.1c0.9-3.7,2.5-7.1,4.7-10.2
		c1.2-1.7,2.4-3.4,4.1-5.1H461v-4.4H480.5"/>
	<path clip-path="url(#SVGID_2_)" fill-rule="evenodd" clip-rule="evenodd" fill="#040304" d="M489.1,373.6c-1,0.9-1.2,1.9-1.2,3
		c0,1.2,0.4,2.2,1.2,2.9c0.9,0.9,2,1.1,3.1,1.1c0.9,0,1.7-0.2,2.3-0.5c1.6-0.7,2.1-2.3,2.1-3.5c0-0.8-0.2-1.5-0.6-2.2
		c-0.8-1.5-2.5-2-3.8-1.9C490.9,372.5,489.8,372.9,489.1,373.6 M489.3,363.6c-0.9,0.7-1.1,1.5-1.1,2.3c0,1,0.3,1.7,1.1,2.4
		c0.9,0.7,1.9,0.9,3,0.9c1.2,0,2.2-0.3,2.9-0.9c0.9-0.7,1.2-1.5,1.2-2.4c0-1-0.4-1.7-1.2-2.3c-0.9-0.7-1.8-0.9-2.9-0.9
		C491.1,362.7,490.1,363,489.3,363.6z M501,373.2c0.8,1.1,1,2.4,1,3.7c0,1.5-0.4,2.9-1.2,4.1c-1.2,1.9-3.6,3.2-5.9,3.6
		c-0.8,0.2-1.7,0.2-2.7,0.2c-1.4,0-2.7-0.2-3.9-0.6c-1.2-0.4-2.2-0.9-3.1-1.6c-1.9-1.5-2.8-3.8-2.8-5.7c0-1.5,0.4-2.7,1.1-3.7
		c0.4-0.5,0.8-1,1.4-1.4c0.6-0.4,1.3-0.9,2.1-1.3c-2.1-1-3.1-2.2-3.4-3.4c-0.2-0.5-0.2-1-0.2-1.6c0-1.3,0.3-2.5,1.1-3.5
		c1.2-1.6,3.3-2.7,5.3-3.1c0.8-0.1,1.6-0.2,2.4-0.2c1.7,0,3.2,0.3,4.6,0.9c2.9,1.2,4.4,3.8,4.3,5.9c-0.1,1.4-0.2,2.6-1.8,4.1
		c-0.5,0.4-1.1,0.7-1.8,1C499.1,371.3,500.2,372.2,501,373.2L501,373.2z"/>
	<path clip-path="url(#SVGID_2_)" fill-rule="evenodd" clip-rule="evenodd" fill="#040304" d="M522.3,359.2v4.4h-11.4l-0.9,5.2
		c1.8-1.2,3.2-1.5,4.8-1.5c1.2,0,2.4,0.2,3.4,0.6c1.1,0.4,2,1,2.8,1.8c1.7,1.7,2.4,4.1,2.4,6.2c0,1.8-0.4,3.3-1.3,4.7
		c-1.2,2.1-3.7,3.6-5.9,4c-0.9,0.2-1.8,0.3-2.8,0.3c-1.7,0-3.3-0.3-4.7-0.9c-2.2-0.9-3.6-2.7-4.1-4.3c-0.2-0.6-0.3-1.3-0.3-2h5.4
		c0,1,0.4,1.8,1,2.3c0.8,0.6,1.8,0.8,2.8,0.8c1.4,0,2.5-0.4,3.2-1.3c1-1,1.2-2.2,1.2-3.4c0-1.5-0.4-2.7-1.1-3.5
		c-1-1-2.1-1.2-3.3-1.3c-0.8,0-1.6,0.2-2.1,0.5c-0.6,0.3-1.1,0.8-1.4,1.4h-4.9l2.4-13.8L522.3,359.2"/>
	
		<rect x="525.9" y="372.1" clip-path="url(#SVGID_2_)" fill-rule="evenodd" clip-rule="evenodd" fill="#040304" width="10.6" height="4.7"/>
	<path clip-path="url(#SVGID_2_)" fill-rule="evenodd" clip-rule="evenodd" fill="#040304" d="M557.8,379.6v4.4H539
		c0.2-2,0.3-2.4,0.6-3.3c0.1-0.4,0.3-0.8,0.5-1.2c0.5-1,1.1-1.9,1.7-2.5c0.4-0.3,0.8-0.7,1.4-1.1c0.6-0.4,1.4-0.9,2.2-1.5
		c1-0.6,1.9-1.2,2.7-1.8c0.8-0.5,1.5-1,2.1-1.5c1.9-1.6,2.3-3,2.3-4.5c0-0.8-0.2-1.5-0.5-2.1c-0.6-1.3-2.2-1.9-3.4-1.9
		c-1.3,0-2.3,0.4-3,1.1c-0.9,1.2-1.1,2.4-0.9,4.1h-5.3v-0.5c0-1.9,0.3-3.5,1-4.8c0.7-1.3,1.7-2.3,3.1-2.9c1.5-0.7,3.1-1,4.9-1
		c1.5,0,2.8,0.2,4,0.5c1.1,0.4,2.1,0.9,3,1.6c1.8,1.5,2.6,3.8,2.6,5.8c-0.1,1.9-0.5,3.4-2.1,5.1c-0.4,0.5-1,1-1.7,1.5
		c-0.7,0.5-1.5,1.1-2.4,1.8c-1.6,1-2.6,1.8-3.3,2.2c-1.7,1.2-1.9,1.6-2.4,2.4H557.8"/>
	<path clip-path="url(#SVGID_2_)" fill-rule="evenodd" clip-rule="evenodd" fill="#040304" d="M568,372.9v-3.3h0.5
		c1.6,0,2.8-0.3,3.6-0.9c1-0.8,1.2-1.7,1.2-2.7c0-1.1-0.3-1.9-0.9-2.5c-0.7-0.7-1.6-0.8-2.6-0.9c-1.1,0-2.1,0.3-2.7,1
		c-0.9,1-1,2.1-1,3.3H561c0-1.5,0.2-2.6,0.4-3.4c0.3-0.8,0.7-1.5,1.4-2.2c0.8-0.9,1.8-1.6,3-2c1.2-0.4,2.6-0.7,4.2-0.7
		c1.4,0,2.6,0.2,3.6,0.5c1.1,0.3,2,0.8,2.8,1.3c1.7,1.3,2.4,3.2,2.4,4.9c0,1.1-0.3,2.1-1,3.1c-0.6,0.9-1.5,1.7-2.7,2.3
		c2.3,0.8,3.8,2.5,4.3,4.1c0.2,0.6,0.3,1.3,0.3,2c0,1.2-0.3,2.3-0.7,3.3c-0.4,1-1.1,1.8-1.9,2.5c-1.8,1.5-4.7,2.2-7.1,2.2
		c-1.4,0-2.7-0.2-3.8-0.5c-1.2-0.4-2.2-0.9-3-1.6c-1.6-1.4-2.6-3.8-2.5-5.9h5.3c0.2,1.4,0.2,1.7,0.7,2.4c0.7,1,2.3,1.5,3.5,1.4
		c1.1,0,2.1-0.4,2.8-1.1c1.4-1.3,1.5-2.7,0.9-4.2c-0.2-0.4-0.4-0.8-0.9-1.2c-0.4-0.4-0.9-0.7-1.6-0.9
		C570.5,373,569.3,372.9,568,372.9"/>
	<path clip-path="url(#SVGID_2_)" fill-rule="evenodd" clip-rule="evenodd" fill="#040304" d="M589,372.8c-0.9,1-1.1,2.1-1.2,3.3
		c0,0.9,0.2,1.6,0.6,2.3c0.7,1.5,2.4,2.2,3.6,2.1c0.9,0,1.6-0.2,2.3-0.6c1.4-0.9,2-2.6,2-4c0-0.9-0.2-1.7-0.6-2.3
		c-0.7-1.5-2.3-2.1-3.6-2.1C590.8,371.6,589.8,372,589,372.8 M595.9,364.9c-0.9-2.1-2.2-2.1-3.4-2.2c-1,0-1.8,0.2-2.5,0.7
		c-1.4,1-2,3.2-2,5c-0.1,0.5,0,1-0.1,1.5c2-1.9,3.7-2.2,5.5-2.2c1.2,0,2.3,0.2,3.3,0.6c1,0.4,1.9,0.9,2.5,1.6
		c1.5,1.5,2.3,3.8,2.2,5.8c0,1.8-0.3,3.3-1.1,4.7c-1.2,2.2-3.4,3.6-5.5,4.1c-2.1,0.5-4.8,0.4-7.1-0.7c-1.4-0.6-2.5-1.6-3.3-2.7
		c-0.7-1-1.2-2.2-1.5-3.6c-0.1-0.7-0.2-1.5-0.3-2.4c-0.1-0.9-0.1-1.8-0.1-2.9c0-2.2,0.1-4.1,0.5-5.6c0.3-1.4,0.9-2.8,1.7-4.1
		c0.6-0.8,1.3-1.5,2.1-2.1c2.5-1.8,5.6-2.1,8.8-1.4c1.5,0.5,2.7,0.9,4.2,2.6c0.8,1.2,0.9,2.1,1.2,3.2H595.9z"/>
	<path clip-path="url(#SVGID_2_)" fill-rule="evenodd" clip-rule="evenodd" fill="#040304" d="M621.9,359.2v4.4h-11.4l-0.9,5.2
		c1.8-1.2,3.3-1.5,4.8-1.5c1.3,0,2.4,0.2,3.5,0.6c1,0.4,2,1,2.7,1.8c1.8,1.7,2.5,4.1,2.4,6.2c0,1.8-0.4,3.3-1.2,4.7
		c-1.3,2.1-3.7,3.6-6,4c-0.8,0.2-1.7,0.3-2.7,0.3c-1.8,0-3.4-0.3-4.7-0.9c-2.2-0.9-3.7-2.7-4.1-4.3c-0.2-0.6-0.4-1.3-0.4-2h5.4
		c0.1,1,0.4,1.8,1.1,2.3c0.8,0.6,1.7,0.8,2.7,0.8c1.4,0,2.5-0.4,3.3-1.3c0.9-1,1.2-2.2,1.2-3.4c0-1.5-0.4-2.7-1.2-3.5
		c-0.9-1-2-1.2-3.2-1.3c-0.9,0-1.6,0.2-2.2,0.5c-0.6,0.3-1.1,0.8-1.4,1.4h-4.9l2.5-13.8L621.9,359.2"/>
</g>
</svg>
